<?xml version="1.0" encoding="UTF-8" standalone="no"?>
<!DOCTYPE svg PUBLIC "-//W3C//DTD SVG 1.1//EN" "http://www.w3.org/Graphics/SVG/1.1/DTD/svg11.dtd">
<svg width="100%" height="100%" viewBox="0 0 1200 1200" version="1.1" xmlns="http://www.w3.org/2000/svg" xmlns:xlink="http://www.w3.org/1999/xlink" xml:space="preserve" xmlns:serif="http://www.serif.com/" style="fill-rule:evenodd;clip-rule:evenodd;stroke-linejoin:round;stroke-miterlimit:2;">
    <g id="Layer3">
    </g>
    <g transform="matrix(1.57231,0.000303779,-0.000241361,1.24924,-397.328,-81.9699)">
        <path d="M349.555,479.339L279.796,479.339L634.382,138.453L988.968,479.339L919.209,479.339L919.209,920.99L349.555,920.99L349.555,479.339Z" style="fill:rgb(219,159,151);"/>
    </g>
    <g id="Layer1">
    </g>
    <g transform="matrix(-0.00663827,1.39144,-1.39144,-0.00663827,599.97,674.842)">
        <circle cx="0" cy="0" r="219.237" style="fill:rgb(139,87,87);"/>
    </g>
    <g id="Layer2" transform="matrix(1.0699,-5.50721e-05,5.50721e-05,1.0699,-39.9615,-129.75)">
        <g transform="matrix(0.78988,-1.05263,0.916427,0.687674,-475.035,989.834)">
            <path d="M650.185,645.577L650.185,748.925C650.185,753.393 647.027,757.02 643.137,757.02L629.042,757.02C625.152,757.02 621.994,753.393 621.994,748.925L621.994,645.577C621.994,641.109 625.152,637.482 629.042,637.482L643.137,637.482C647.027,637.482 650.185,641.109 650.185,645.577Z" style="fill:white;"/>
        </g>
        <g transform="matrix(-1.57289,-0.000384854,0.000384854,-1.57289,601.042,750.66)">
            <circle cx="0" cy="0" r="18.962" style="fill:white;"/>
        </g>
        <g transform="matrix(1.31603,0.000322007,-0.000290446,1.18705,-237.423,-160.23)">
            <path d="M650.185,645.295L650.185,749.206C650.185,753.519 647.027,757.02 643.137,757.02L629.042,757.02C625.152,757.02 621.994,753.519 621.994,749.206L621.994,645.295C621.994,640.983 625.152,637.482 629.042,637.482L643.137,637.482C647.027,637.482 650.185,640.983 650.185,645.295Z" style="fill:white;"/>
        </g>
    </g>
    <g transform="matrix(1.68282,0.000325131,-0.000325131,1.68282,-420.997,-399.072)">
        <path d="M613.644,471.822L613.644,496.442C613.644,498.325 612.115,499.853 610.233,499.853L603.411,499.853C601.528,499.853 600,498.325 600,496.442L600,471.822C600,469.94 601.528,468.411 603.411,468.411L610.233,468.411C612.115,468.411 613.644,469.94 613.644,471.822Z" style="fill:white;"/>
    </g>
    <g transform="matrix(1.68282,0.000325131,-0.000325131,1.68282,-417.983,116.59)">
        <path d="M613.644,471.822L613.644,496.442C613.644,498.325 612.115,499.853 610.233,499.853L603.411,499.853C601.528,499.853 600,498.325 600,496.442L600,471.822C600,469.94 601.528,468.411 603.411,468.411L610.233,468.411C612.115,468.411 613.644,469.94 613.644,471.822Z" style="fill:white;"/>
    </g>
    <g transform="matrix(1.68282,0.000325131,-0.000325131,1.68282,-417.983,116.59)">
        <path d="M613.644,471.822L613.644,496.442C613.644,498.325 612.115,499.853 610.233,499.853L603.411,499.853C601.528,499.853 600,498.325 600,496.442L600,471.822C600,469.94 601.528,468.411 603.411,468.411L610.233,468.411C612.115,468.411 613.644,469.94 613.644,471.822Z" style="fill:white;"/>
    </g>
    <g transform="matrix(-0.000584865,1.68282,-1.68282,-0.000584865,1161.24,-346.098)">
        <path d="M613.644,471.822L613.644,496.442C613.644,498.325 612.115,499.853 610.233,499.853L603.411,499.853C601.528,499.853 600,498.325 600,496.442L600,471.822C600,469.94 601.528,468.411 603.411,468.411L610.233,468.411C612.115,468.411 613.644,469.94 613.644,471.822Z" style="fill:white;"/>
    </g>
    <g transform="matrix(-0.000584865,1.68282,-1.68282,-0.000584865,1672.14,-346)">
        <path d="M613.644,471.822L613.644,496.442C613.644,498.325 612.115,499.853 610.233,499.853L603.411,499.853C601.528,499.853 600,498.325 600,496.442L600,471.822C600,469.94 601.528,468.411 603.411,468.411L610.233,468.411C612.115,468.411 613.644,469.94 613.644,471.822Z" style="fill:white;"/>
    </g>
</svg>
